Coordinates
version=1
nRows=9
nColumns=36
inDegrees=yes

Units are S.I. units (second, meters, Newtons, ...)
If the header above contains a line with 'inDegrees', this indicates whether rotational values are in degrees (yes) or radians (no).

endheader
time	pelvis_tilt	pelvis_list	pelvis_rotation	pelvis_tx	pelvis_ty	pelvis_tz	hip_flexion_r	hip_adduction_r	hip_rotation_r	knee_angle_r	knee_angle_r_beta	ankle_angle_r	subtalar_angle_r	mtp_angle_r	hip_flexion_l	hip_adduction_l	hip_rotation_l	knee_angle_l	knee_angle_l_beta	ankle_angle_l	subtalar_angle_l	mtp_angle_l	lumbar_extension	lumbar_bending	lumbar_rotation	arm_flex_r	arm_add_r	arm_rot_r	elbow_flex_r	pro_sup_r	arm_flex_l	arm_add_l	arm_rot_l	elbow_flex_l	pro_sup_l
      0.00000000	     10.84456756	     -1.55705032	      2.51209576	      0.38858626	      1.31626431	     -0.24990482	    -14.23028692	      1.56773865	      4.11982769	      0.25009959	      0.00436506	     11.23535958	     -3.58728880	     -6.31218070	    -16.13378947	     -3.35411515	     -0.92612695	      0.24417053	      0.00426158	     12.48546123	     -3.36073030	     -6.31218070	    -13.87325657	      2.61239900	      1.22890353	      3.72998483	    -12.97725555	      7.86570839	     12.11152156	     88.45248804	      1.33228258	    -15.31412085	      7.61960680	     18.51698444	     88.56795861
      0.01666670	      9.03137457	     -1.51709543	      2.32313807	      0.38907443	      1.31326999	     -0.25070874	    -12.26160647	      1.42687265	      4.21141538	      0.24868779	      0.00434042	     12.12270658	     -2.63350614	     -6.72568967	    -13.92902778	     -3.08050036	     -2.33705269	      0.23026031	      0.00401880	     11.67057318	     -3.90436331	     -6.72568967	    -12.27605471	      2.39317541	      2.16276232	      3.10951733	    -12.91283418	      8.86415136	     11.23427685	     94.19972019	      1.82183284	    -14.81810323	      6.30417946	     16.32059233	     92.40110417
      0.03333330	      8.41430689	     -1.45226142	      2.85584616	      0.39509789	      1.31298731	     -0.25500340	    -11.88120129	      1.33907512	      3.87052279	      0.23904008	      0.00417204	     12.20809904	     -2.42271107	     -6.77191829	    -13.18926568	     -3.05956738	     -3.26120122	      0.18645294	      0.00325422	     12.13117342	     -2.79966011	     -6.77191829	    -11.70185026	      2.37966282	      2.18152095	      2.64666999	    -12.93061651	      8.84079998	     10.32484913	     95.17196831	      2.53443777	    -14.56460624	      5.40039169	     14.76733405	     93.06667598
      0.05000000	      8.15258664	     -1.37000831	      3.06402206	      0.39397460	      1.31190008	     -0.25577195	    -11.67359437	      1.15730392	      3.21541066	      0.26917179	      0.00469793	     12.10442932	     -2.01058275	     -7.07592741	    -12.85056424	     -2.92658660	     -3.61349571	      0.19091084	      0.00333202	     12.16147620	     -2.83109043	     -7.07592741	    -11.43936840	      2.29944024	      1.91243690	      2.69130844	    -12.88598249	      7.50926907	      9.67926064	    101.18227300	      2.49124078	    -14.22916109	      1.00209393	     14.62835182	     99.62965910
      0.06666670	      8.52343584	     -1.41933362	      3.07556032	      0.38485329	      1.31288425	     -0.25286869	    -11.89957403	      1.27289930	      3.30195883	      0.34354986	      0.00599608	     11.66780827	     -2.23681541	     -7.17101085	    -13.10848616	     -2.97307673	     -3.75780373	      0.20900937	      0.00364790	     12.32703102	     -2.61950494	     -7.17101085	    -12.30042770	      2.28407989	      2.01094481	      2.95858193	    -12.91362233	      8.87157926	      9.51941316	    100.34273653	      3.11509695	    -14.26652140	      1.78873604	     14.82161947	     99.02908759
      0.08333330	      8.77728606	     -1.47132842	      3.08795332	      0.38523722	      1.31647742	     -0.25348721	    -12.08476599	      1.35380654	      3.28258817	      0.45461872	      0.00793459	     11.14399271	     -2.36741289	     -7.30959590	    -13.32270690	     -3.05151233	     -3.79501620	      0.23392752	      0.00408281	     12.07472184	     -2.86081985	     -7.30959590	    -12.96838638	      2.26421872	      2.02879982	      3.19434089	    -12.83424941	      8.39366528	      9.46001413	    102.60754925	      3.30671917	    -14.14116556	      0.16727886	     15.42476749	    102.51565531
      0.10000000	      8.88114984	     -1.49459092	      2.86412113	      0.38511547	      1.31697536	     -0.25337795	    -12.07569350	      1.34914166	      3.63056216	      0.52419859	      0.00914899	     10.69008178	     -2.72826416	     -7.35495917	    -13.43268797	     -3.05974803	     -3.88582605	      0.25429341	      0.00443826	     11.87881470	     -3.00289963	     -7.35495917	    -13.36854516	      2.16468369	      2.13557122	      3.44801398	    -12.80694423	      9.80719320	      9.43151381	    101.39979003	      3.39714920	    -14.25313480	      1.02612002	     15.75490757	    101.49760123
      0.11666670	      8.79291818	     -1.50472358	      2.75458358	      0.38576865	      1.31680594	     -0.25346479	    -11.92817080	      1.33262356	      3.60918024	      0.57890730	      0.01010384	     10.62044937	     -2.42749432	     -7.38122612	    -13.34816671	     -3.07252912	     -4.15984838	      0.27541287	      0.00480686	     11.88114317	     -2.64079024	     -7.38122612	    -13.36853468	      2.07856996	      2.01539691	      3.70081616	    -12.63613237	     10.66822842	      9.02779847	     99.23661189	      3.38338392	    -14.27515569	      1.35958736	     15.70146399	     99.51774980
      0.13333330	      8.64639892	     -1.49743403	      2.59827679	      0.39393854	      1.31668619	     -0.25664229	    -11.81463540	      1.25120750	      4.17332164	      0.55884615	      0.00975371	     10.44800829	     -3.02495063	     -7.38837138	    -13.34869313	     -3.01215110	     -4.05293311	      0.27076716	      0.00472578	     11.68891801	     -2.98401338	     -7.38837138	    -13.20018728	      1.99440088	      2.07196623	      3.31889315	    -12.69595949	     10.96177803	      9.69991608	    100.53512565	      2.82969501	    -14.36862364	      1.45114857	     16.55844189	    101.04033256
